<?xml version="1.0" standalone="no"?>
<!DOCTYPE svg PUBLIC "-//W3C//DTD SVG 20010904//EN"
 "http://www.w3.org/TR/2001/REC-SVG-20010904/DTD/svg10.dtd">
<svg version="1.0" xmlns="http://www.w3.org/2000/svg"
 width="332.000000pt" height="332.000000pt" viewBox="0 0 332.000000 332.000000"
 preserveAspectRatio="xMidYMid meet">
<metadata>
Created by potrace 1.14, written by Peter Selinger 2001-2017
</metadata>
<g transform="translate(0.000000,332.000000) scale(0.100000,-0.100000)"
fill="#000000" stroke="none">
<path d="M1577 3314 c-1 -1 -33 -4 -72 -8 -73 -6 -95 -9 -185 -27 -30 -7 -59
-12 -65 -13 -56 -11 -212 -68 -300 -110 -236 -112 -429 -266 -600 -477 -131
-162 -275 -468 -314 -669 -18 -96 -21 -113 -28 -195 -17 -197 -3 -373 43 -558
140 -568 585 -1027 1147 -1188 40 -11 81 -22 92 -24 11 -2 47 -8 80 -14 333
-60 682 -13 991 133 494 234 829 678 929 1231 23 131 24 387 1 515 -3 14 -10
53 -16 86 -40 230 -203 562 -365 743 -294 330 -666 524 -1086 567 -59 6 -247
12 -252 8z"/>
</g>
</svg>
